<svg xmlns="http://www.w3.org/2000/svg" width="256" height="256" viewBox="0 0 256 256"><rect width="100%" height="100%" fill="#06b6d4"/><rect x="0.0" y="0.0" width="23.3" height="23.3" fill="#db2777"/><polygon points="0.0,23.3 23.3,23.3 0.0,46.5" fill="#0f172a"/><polygon points="0.0,46.5 23.3,46.5 0.0,69.8" fill="#06b6d4"/><rect x="0.0" y="69.8" width="23.3" height="23.3" fill="#06b6d4"/><circle cx="11.6" cy="104.7" r="8.9" fill="#0f172a"/><rect x="0.0" y="116.4" width="23.3" height="23.3" fill="#10b981"/><polygon points="0.0,139.6 23.3,139.6 0.0,162.9" fill="#10b981"/><polygon points="0.0,162.9 23.3,162.9 0.0,186.2" fill="#10b981"/><rect x="0.0" y="186.2" width="23.3" height="23.3" fill="#f97316"/><polygon points="0.0,209.5 23.3,209.5 0.0,232.7" fill="#0f172a"/><rect x="0.0" y="232.7" width="23.3" height="23.3" fill="#06b6d4"/><circle cx="34.9" cy="11.6" r="10.9" fill="#06b6d4"/><circle cx="34.9" cy="34.9" r="9.0" fill="#06b6d4"/><circle cx="34.9" cy="58.2" r="9.1" fill="#10b981"/><rect x="23.3" y="69.8" width="23.3" height="23.3" fill="#f59e0b"/><circle cx="34.9" cy="104.7" r="10.8" fill="#7c3aed"/><polygon points="23.3,116.4 46.5,116.4 23.3,139.6" fill="#7c3aed"/><rect x="23.3" y="139.6" width="23.3" height="23.3" fill="#f97316"/><circle cx="34.9" cy="174.5" r="10.4" fill="#f59e0b"/><rect x="23.3" y="186.2" width="23.3" height="23.3" fill="#f97316"/><polygon points="23.3,209.5 46.5,209.5 23.3,232.7" fill="#1d4ed8"/><polygon points="23.3,232.7 46.5,232.7 23.3,256.0" fill="#10b981"/><circle cx="58.2" cy="11.6" r="10.5" fill="#f59e0b"/><circle cx="58.2" cy="34.9" r="11.0" fill="#0f172a"/><polygon points="46.5,46.5 69.8,46.5 46.5,69.8" fill="#f59e0b"/><circle cx="58.2" cy="81.5" r="10.8" fill="#7c3aed"/><polygon points="46.5,93.1 69.8,93.1 46.5,116.4" fill="#1d4ed8"/><circle cx="58.2" cy="128.0" r="9.7" fill="#10b981"/><rect x="46.5" y="139.6" width="23.3" height="23.3" fill="#f59e0b"/><circle cx="58.2" cy="174.5" r="10.4" fill="#f59e0b"/><circle cx="58.2" cy="197.8" r="9.7" fill="#0f172a"/><polygon points="46.5,209.5 69.8,209.5 46.5,232.7" fill="#1d4ed8"/><rect x="46.5" y="232.7" width="23.3" height="23.3" fill="#1d4ed8"/><rect x="69.8" y="0.0" width="23.3" height="23.3" fill="#7c3aed"/><circle cx="81.5" cy="34.9" r="9.9" fill="#0f172a"/><polygon points="69.8,46.5 93.1,46.5 69.8,69.8" fill="#f97316"/><rect x="69.8" y="69.8" width="23.3" height="23.3" fill="#10b981"/><rect x="69.8" y="93.1" width="23.3" height="23.3" fill="#f97316"/><circle cx="81.5" cy="128.0" r="10.4" fill="#7c3aed"/><rect x="69.8" y="139.6" width="23.3" height="23.3" fill="#0f172a"/><rect x="69.8" y="162.9" width="23.3" height="23.3" fill="#db2777"/><polygon points="69.8,186.2 93.1,186.2 69.8,209.5" fill="#0f172a"/><circle cx="81.5" cy="221.1" r="8.9" fill="#7c3aed"/><rect x="69.8" y="232.7" width="23.3" height="23.3" fill="#f59e0b"/><rect x="93.1" y="0.0" width="23.3" height="23.3" fill="#1d4ed8"/><circle cx="104.7" cy="34.9" r="10.3" fill="#1d4ed8"/><polygon points="93.1,46.5 116.4,46.5 93.1,69.8" fill="#1d4ed8"/><rect x="93.1" y="69.8" width="23.3" height="23.3" fill="#06b6d4"/><rect x="93.1" y="93.1" width="23.3" height="23.3" fill="#db2777"/><rect x="93.1" y="116.4" width="23.3" height="23.3" fill="#7c3aed"/><rect x="93.1" y="139.6" width="23.3" height="23.3" fill="#0f172a"/><circle cx="104.7" cy="174.5" r="10.0" fill="#f97316"/><circle cx="104.7" cy="197.8" r="9.2" fill="#db2777"/><circle cx="104.7" cy="221.1" r="10.5" fill="#06b6d4"/><rect x="93.1" y="232.7" width="23.3" height="23.3" fill="#10b981"/><circle cx="128.0" cy="11.6" r="9.5" fill="#10b981"/><polygon points="116.4,23.3 139.6,23.3 116.4,46.5" fill="#7c3aed"/><polygon points="116.4,46.5 139.6,46.5 116.4,69.8" fill="#10b981"/><rect x="116.4" y="69.8" width="23.3" height="23.3" fill="#f97316"/><polygon points="116.4,93.1 139.6,93.1 116.4,116.4" fill="#1d4ed8"/><rect x="116.4" y="116.4" width="23.3" height="23.3" fill="#f97316"/><rect x="116.4" y="139.6" width="23.3" height="23.3" fill="#10b981"/><polygon points="116.4,162.9 139.6,162.9 116.4,186.2" fill="#1d4ed8"/><circle cx="128.0" cy="197.8" r="9.7" fill="#0f172a"/><polygon points="116.4,209.5 139.6,209.5 116.4,232.7" fill="#06b6d4"/><circle cx="128.0" cy="244.4" r="10.1" fill="#f97316"/><circle cx="151.3" cy="11.6" r="10.7" fill="#7c3aed"/><rect x="139.6" y="23.3" width="23.3" height="23.3" fill="#7c3aed"/><circle cx="151.3" cy="58.2" r="10.2" fill="#db2777"/><polygon points="139.6,69.8 162.9,69.8 139.6,93.1" fill="#db2777"/><rect x="139.6" y="93.1" width="23.3" height="23.3" fill="#7c3aed"/><rect x="139.6" y="116.4" width="23.3" height="23.3" fill="#7c3aed"/><circle cx="151.3" cy="151.3" r="9.3" fill="#0f172a"/><polygon points="139.6,162.9 162.9,162.9 139.6,186.2" fill="#10b981"/><rect x="139.6" y="186.2" width="23.3" height="23.3" fill="#f97316"/><polygon points="139.6,209.5 162.9,209.5 139.6,232.7" fill="#f97316"/><circle cx="151.3" cy="244.4" r="10.2" fill="#f59e0b"/><polygon points="162.9,0.0 186.2,0.0 162.9,23.3" fill="#10b981"/><rect x="162.9" y="23.3" width="23.3" height="23.3" fill="#7c3aed"/><rect x="162.9" y="46.5" width="23.3" height="23.3" fill="#0f172a"/><rect x="162.9" y="69.8" width="23.3" height="23.3" fill="#10b981"/><rect x="162.9" y="93.1" width="23.3" height="23.3" fill="#10b981"/><rect x="162.9" y="116.4" width="23.3" height="23.3" fill="#7c3aed"/><rect x="162.9" y="139.6" width="23.3" height="23.3" fill="#db2777"/><circle cx="174.5" cy="174.5" r="11.1" fill="#f97316"/><polygon points="162.9,186.2 186.2,186.2 162.9,209.5" fill="#f97316"/><rect x="162.9" y="209.5" width="23.3" height="23.3" fill="#7c3aed"/><circle cx="174.5" cy="244.4" r="10.8" fill="#db2777"/><polygon points="186.2,0.0 209.5,0.0 186.2,23.3" fill="#1d4ed8"/><circle cx="197.8" cy="34.9" r="10.3" fill="#f59e0b"/><circle cx="197.8" cy="58.2" r="10.3" fill="#db2777"/><circle cx="197.8" cy="81.5" r="10.8" fill="#7c3aed"/><rect x="186.2" y="93.1" width="23.3" height="23.3" fill="#1d4ed8"/><circle cx="197.8" cy="128.0" r="9.9" fill="#7c3aed"/><rect x="186.2" y="139.6" width="23.3" height="23.3" fill="#7c3aed"/><polygon points="186.2,162.9 209.5,162.9 186.2,186.2" fill="#1d4ed8"/><polygon points="186.2,186.2 209.5,186.2 186.2,209.5" fill="#f97316"/><polygon points="186.2,209.5 209.5,209.5 186.2,232.7" fill="#06b6d4"/><polygon points="186.2,232.7 209.5,232.7 186.2,256.0" fill="#7c3aed"/><rect x="209.5" y="0.0" width="23.3" height="23.3" fill="#7c3aed"/><rect x="209.5" y="23.3" width="23.3" height="23.3" fill="#06b6d4"/><polygon points="209.5,46.5 232.7,46.5 209.5,69.8" fill="#f97316"/><polygon points="209.5,69.8 232.7,69.8 209.5,93.1" fill="#f59e0b"/><circle cx="221.1" cy="104.7" r="11.0" fill="#db2777"/><rect x="209.5" y="116.4" width="23.3" height="23.3" fill="#f97316"/><polygon points="209.5,139.6 232.7,139.6 209.5,162.9" fill="#7c3aed"/><rect x="209.5" y="162.9" width="23.3" height="23.3" fill="#1d4ed8"/><rect x="209.5" y="186.2" width="23.3" height="23.3" fill="#1d4ed8"/><circle cx="221.1" cy="221.1" r="11.2" fill="#10b981"/><rect x="209.5" y="232.7" width="23.3" height="23.3" fill="#1d4ed8"/><rect x="232.7" y="0.0" width="23.3" height="23.3" fill="#1d4ed8"/><rect x="232.7" y="23.3" width="23.3" height="23.3" fill="#7c3aed"/><polygon points="232.7,46.5 256.0,46.5 232.7,69.8" fill="#7c3aed"/><circle cx="244.4" cy="81.5" r="11.1" fill="#f59e0b"/><rect x="232.7" y="93.1" width="23.3" height="23.3" fill="#0f172a"/><polygon points="232.7,116.4 256.0,116.4 232.7,139.6" fill="#06b6d4"/><rect x="232.7" y="139.6" width="23.3" height="23.3" fill="#0f172a"/><circle cx="244.4" cy="174.5" r="10.7" fill="#06b6d4"/><rect x="232.7" y="186.2" width="23.3" height="23.3" fill="#f59e0b"/><rect x="232.7" y="209.5" width="23.3" height="23.3" fill="#10b981"/><polygon points="232.7,232.7 256.0,232.7 232.7,256.0" fill="#1d4ed8"/></svg>
